<?xml version="1.0" standalone="no"?>
<!DOCTYPE svg PUBLIC "-//W3C//DTD SVG 20010904//EN"
 "http://www.w3.org/TR/2001/REC-SVG-20010904/DTD/svg10.dtd">
<svg version="1.0" xmlns="http://www.w3.org/2000/svg"
 width="544.000000pt" height="520.000000pt" viewBox="0 0 544.000000 520.000000"
 preserveAspectRatio="xMidYMid meet">

<g transform="translate(0.000000,520.000000) scale(0.100000,-0.100000)"
fill="#ffffffff" stroke="none">
<path d="M2846 4153 c-17 -107 3 -261 50 -380 48 -122 171 -302 205 -303 10 0
58 21 108 46 106 53 186 124 225 202 34 66 42 67 16 1 -46 -116 -137 -224
-234 -279 -31 -18 -56 -35 -55 -38 1 -13 105 -95 214 -167 139 -93 291 -171
518 -264 286 -119 469 -257 575 -437 123 -209 135 -452 31 -664 -34 -70 -58
-101 -133 -175 -73 -73 -107 -99 -176 -132 -192 -94 -428 -113 -657 -54 l-72
19 22 -30 c48 -65 167 -134 294 -170 67 -20 102 -23 244 -23 l167 0 -31 -39
c-63 -79 -216 -243 -308 -330 -189 -178 -374 -314 -546 -402 -48 -24 -82 -44
-77 -44 6 0 58 13 116 30 741 208 1277 844 1358 1611 65 616 -195 1246 -673
1632 -296 240 -622 375 -999 416 -54 6 -115 11 -136 11 -38 0 -40 -2 -46 -37z
m344 -173 c11 -11 20 -26 20 -33 0 -24 -31 -57 -55 -57 -49 0 -72 55 -38 92
21 24 48 23 73 -2z"/>
<path d="M2320 4115 c-511 -149 -936 -509 -1164 -985 -447 -933 -56 -2047 876
-2495 132 -63 288 -116 425 -145 107 -22 359 -47 369 -37 4 3 9 46 11 94 9
152 -33 310 -119 453 -55 90 -120 169 -139 170 -10 0 -57 -20 -107 -45 -99
-50 -188 -127 -223 -196 -28 -55 -35 -44 -9 16 46 108 148 219 248 269 17 9
32 20 31 24 -1 14 -104 94 -220 171 -135 90 -301 174 -514 261 -229 94 -342
166 -467 298 -215 228 -267 535 -137 802 34 70 58 101 133 175 73 73 107 99
176 132 192 94 428 113 657 54 l72 -19 -22 30 c-48 65 -167 134 -294 170 -67
20 -102 23 -244 23 l-167 0 31 39 c229 289 586 595 854 732 48 24 80 44 72 44
-8 -1 -66 -16 -129 -35z m244 -3381 c37 -37 1 -103 -49 -90 -14 4 -31 17 -37
31 -23 52 46 100 86 59z"/>
</g>
</svg>
